<?xml version="1.0" standalone="no"?>
<!DOCTYPE svg PUBLIC "-//W3C//DTD SVG 20010904//EN"
 "http://www.w3.org/TR/2001/REC-SVG-20010904/DTD/svg10.dtd">
<svg version="1.0" xmlns="http://www.w3.org/2000/svg"
 width="383.000000pt" height="383.000000pt" viewBox="0 0 383.000000 383.000000"
 preserveAspectRatio="xMidYMid meet">
<metadata>
Created by potrace 1.14, written by Peter Selinger 2001-2017
</metadata>
<g transform="translate(0.000000,383.000000) scale(0.100000,-0.100000)"
fill="#000000" stroke="none">
<path d="M1805 3806 c-35 -18 -107 -83 -235 -211 l-185 -185 220 -220 c209
-210 221 -220 250 -214 209 47 395 -136 352 -346 -7 -35 -6 -36 206 -248 211
-211 212 -212 244 -203 91 26 211 -14 281 -94 165 -187 32 -478 -218 -478
-167 0 -296 134 -289 300 1 32 6 68 10 80 7 19 -15 45 -165 195 -96 95 -185
183 -199 196 l-24 23 0 -518 0 -518 51 -41 c152 -121 144 -348 -16 -464 -79
-58 -191 -68 -282 -27 -216 99 -234 386 -32 516 l41 26 -1 520 -2 520 -23 15
c-56 37 -117 110 -137 163 -21 56 -24 130 -7 190 7 26 -6 41 -209 244 l-217
216 -589 -588 c-645 -644 -633 -631 -629 -741 1 -30 11 -74 21 -97 14 -31 237
-261 876 -900 471 -472 876 -870 899 -883 58 -35 135 -42 204 -19 51 17 99 63
915 879 591 590 869 875 885 906 31 58 33 166 5 220 -10 19 -406 424 -880 899
-664 665 -872 868 -908 885 -69 33 -149 34 -213 2z"/>
</g>
</svg>
